<svg id="Layer_1" data-name="Layer 1" xmlns="http://www.w3.org/2000/svg" xmlns:xlink="http://www.w3.org/1999/xlink" viewBox="0 0 293 50"><defs><style>.cls-1{fill:url(#linear-gradient);}.cls-2{fill:url(#linear-gradient-2);}.cls-3{fill:#fff;}</style><linearGradient id="linear-gradient" x1="0.57" y1="25" x2="99.65" y2="25" gradientUnits="userSpaceOnUse"><stop offset="0" stop-color="#fdbc3b"/><stop offset="0.5" stop-color="#f16a24"/><stop offset="1" stop-color="#fdbc3b"/></linearGradient><linearGradient id="linear-gradient-2" x1="50.11" y1="50" x2="50.11" gradientUnits="userSpaceOnUse"><stop offset="0" stop-color="#fdbc3b"/><stop offset="0.5" stop-color="#f16a24"/><stop offset="1" stop-color="#fdbc3b"/></linearGradient></defs><path class="cls-1" d="M99.65,25.38v.07c0,16.92-12.46,24-22.66,24-5,0-9.88-.82-17-6.31h0a4.35,4.35,0,0,1-1.66-3.4,4.48,4.48,0,0,1,4.54-4.41,4.56,4.56,0,0,1,2.72.88c3.46,2.57,5.35,5,11.72,5,12.56,0,13.26-11.29,13.26-11.29l-13.08,0c-6.93,0-6.73-8.75,0-8.75l18.86.05a3.15,3.15,0,0,1,2.42.87C99.71,23.14,99.65,25.37,99.65,25.38ZM72,9.08a19.39,19.39,0,0,1,3.09-.25,15.42,15.42,0,0,1,5.77,1.06,15.26,15.26,0,0,1,3,1.75c1.36.93,2.65,1.81,4.13,1.81a4.48,4.48,0,0,0,4.54-4.4A4.34,4.34,0,0,0,90.86,5.6a23.2,23.2,0,0,0-14.51-5h-.49A24.8,24.8,0,0,0,63.07,4c-6.3,3.77-10.56,9.7-13.89,15-.93,1.47-1.83,3-2.7,4.55-2.69,4.69-5.47,9.54-9.75,13.13a16.35,16.35,0,0,1-10.54,3.63A17.46,17.46,0,0,1,12,33.46c-4.24-6-3.24-14.27,2.42-20.11l0,0,0,0a16,16,0,0,1,8.15-4.23,23,23,0,0,1,3.51-.29,12.85,12.85,0,0,1,8.71,3l.24.21a4.74,4.74,0,0,0,3.17,1.52h.29c2.68-.21,4.63-2.07,4.63-4.41A4.32,4.32,0,0,0,41.43,5.6l0,0,0,0,0,0A23.69,23.69,0,0,0,26.92.57h-.55c-8.85,0-16,3.48-21.13,10.36A23.12,23.12,0,0,0,1.7,32a23.17,23.17,0,0,0,5.84,9.78l.06.06.05.06a4.6,4.6,0,0,0,.72.74h0a24.35,24.35,0,0,0,8.92,4.93,29.33,29.33,0,0,0,8,1.14,27.78,27.78,0,0,0,20.87-9.61A44.19,44.19,0,0,0,51.69,31c.77-1.36,1.56-2.77,2.48-4.22l.07-.12c2-3.15,4-6.4,6.31-9.43C64.14,12.48,68,9.73,72,9.08Z"/><path class="cls-2" d="M77,50c-5.41,0-10.43-1.09-17.39-6.43a4.92,4.92,0,0,1-1.91-3.87,5,5,0,0,1,5.1-5,5.12,5.12,0,0,1,3.05,1c.54.4,1,.79,1.51,1.17C70,39,72,40.58,77.23,40.58c10.35,0,12.28-7.87,12.63-10.16l-12.45,0c-3.91,0-5.69-2.54-5.69-4.9s2-5,5.69-5l18.86.05a3.71,3.71,0,0,1,2.83,1,5.9,5.9,0,0,1,1.11,3.73h0v0c0,7.84-2.66,14.33-7.69,18.78A23.7,23.7,0,0,1,77,50ZM62.79,35.86a3.91,3.91,0,0,0-4,3.84,3.8,3.8,0,0,0,1.45,3C67,47.83,71.67,48.87,77,48.87c10.64,0,22.09-7.33,22.09-23.42v-.09a4.7,4.7,0,0,0-.8-2.9,2.61,2.61,0,0,0-2-.69l-18.86-.06c-3.13,0-4.56,2-4.56,3.86s1.41,3.76,4.56,3.76l13.68,0,0,.6c0,.12-.89,11.83-13.83,11.83-5.6,0-7.91-1.82-10.58-3.94-.47-.37-1-.75-1.48-1.14A4,4,0,0,0,62.79,35.86ZM25.35,49.34a29.69,29.69,0,0,1-8.19-1.17,24.88,24.88,0,0,1-9.13-5,4.72,4.72,0,0,1-.83-.84,23.94,23.94,0,0,1-6-10.08A23.66,23.66,0,0,1,4.78,10.59C10.06,3.56,17.33,0,26.37,0h.56A24.25,24.25,0,0,1,41.64,5l.09.08a4.92,4.92,0,0,1,2,3.94c0,2.65-2.16,4.74-5.15,5a5.19,5.19,0,0,1-3.88-1.65l-.23-.2C31.63,9.7,27.63,8.85,22.7,9.64a15.4,15.4,0,0,0-7.85,4.08c-5.5,5.67-6.48,13.64-2.4,19.41,2.89,4.1,8.16,6.64,13.74,6.64a15.77,15.77,0,0,0,10.17-3.49c4.21-3.53,7-8.33,9.63-13,.87-1.53,1.78-3.11,2.71-4.58,3.37-5.36,7.68-11.35,14.08-15.19A25.4,25.4,0,0,1,75.86,0h.5A23.78,23.78,0,0,1,91.21,5.15a4.91,4.91,0,0,1,1.94,3.9A5,5,0,0,1,88,14c-1.65,0-3-.93-4.45-1.91a15.38,15.38,0,0,0-2.91-1.7,16.23,16.23,0,0,0-8.56-.77h0c-3.88.63-7.62,3.3-11.11,7.94-2.28,3-4.32,6.26-6.29,9.39l-.08.12c-.91,1.46-1.74,2.92-2.46,4.2a44.9,44.9,0,0,1-5.53,8.25A28.36,28.36,0,0,1,25.35,49.34Zm1-48.21c-8.67,0-15.62,3.41-20.68,10.14a22.54,22.54,0,0,0-3.45,20.6,22.68,22.68,0,0,0,5.7,9.55l.11.11a4.24,4.24,0,0,0,.67.71,23.85,23.85,0,0,0,8.75,4.84,28.64,28.64,0,0,0,7.88,1.13A27.23,27.23,0,0,0,45.8,38.78a43.8,43.8,0,0,0,5.39-8c.73-1.3,1.56-2.77,2.5-4.25l.07-.12c2-3.16,4-6.42,6.34-9.48C63.77,12,67.76,9.2,71.94,8.52a17.35,17.35,0,0,1,9.16.84,16.51,16.51,0,0,1,3.13,1.81c1.29.88,2.51,1.72,3.81,1.72a3.92,3.92,0,0,0,4-3.84,3.74,3.74,0,0,0-1.5-3A22.59,22.59,0,0,0,76.34,1.14h-.48a24.33,24.33,0,0,0-12.5,3.38c-6.2,3.72-10.4,9.58-13.7,14.82-.92,1.46-1.82,3-2.69,4.54-2.71,4.73-5.52,9.62-9.88,13.27a16.88,16.88,0,0,1-10.9,3.76,18,18,0,0,1-14.67-7.12C7.13,27.56,8.15,19,14,13a16.64,16.64,0,0,1,8.51-4.44c5.27-.85,9.59.1,12.69,2.79l.24.22a4.07,4.07,0,0,0,3,1.36c2.38-.18,4.11-1.8,4.11-3.84a3.77,3.77,0,0,0-1.5-3l-.19-.17a23.14,23.14,0,0,0-14-4.74Z"/><polygon points="293.91 49.75 111.09 49.75 130.28 -0.25 293.91 -0.25 293.91 49.75"/><path class="cls-3" d="M166.62,42.51h-6.31l-3.46-8.21H140.76l-3.5,8.21h-6.12l15-34.27h5.54ZM148.78,15.39,143,29h11.72Z"/><path class="cls-3" d="M194.28,42.51l-8.36-11.86h-7.48V42.51h-6v-34h15.16c7.83,0,12.64,4.13,12.64,10.79,0,5.64-3.35,9-8.11,10.35l9.18,12.88Zm-7.14-28.58h-8.7V25.35h8.75c4.28,0,7-2.23,7-5.73C194.19,15.88,191.56,13.93,187.14,13.93Z"/><path class="cls-3" d="M224.33,34.15h-.2L213.49,18.21v24.3H207.6v-34H214l10.36,16.09L234.68,8.49h6.37v34h-6V18.11Z"/><path class="cls-3" d="M262.92,22.78c7.2,1.75,10.94,4.32,10.94,10,0,6.42-5,10.21-12.15,10.21a21,21,0,0,1-14.2-5.44l3.6-4.28c3.26,2.82,6.52,4.42,10.74,4.42,3.7,0,6-1.7,6-4.33,0-2.47-1.36-3.79-7.68-5.24-7.24-1.76-11.32-3.89-11.32-10.21C248.88,12,253.74,8,260.49,8a18.87,18.87,0,0,1,12.35,4.28l-3.21,4.52a15.4,15.4,0,0,0-9.23-3.5c-3.5,0-5.55,1.8-5.55,4.08C254.85,20.06,256.41,21.22,262.92,22.78Z"/></svg>